%FSLAX25Y25*%
%MOIN*%
G70*
G01*
G75*
G04 Layer_Physical_Order=2*
G04 Layer_Color=16711680*
%ADD10R,0.11811X0.05906*%
%ADD11R,0.11811X0.03937*%
%ADD12R,0.03000X0.02500*%
%ADD13C,0.01000*%
%ADD14C,0.06000*%
%ADD15C,0.03000*%
%ADD16C,0.03937*%
%ADD17C,0.23622*%
G36*
X132235Y18202D02*
X130304Y17818D01*
X127915Y23585D01*
X118110Y27646D01*
X108305Y23585D01*
X104244Y13780D01*
X108305Y3974D01*
Y3974D01*
Y3974D01*
X107937Y2124D01*
X25921D01*
X25553Y3974D01*
Y3974D01*
D01*
X29615Y13780D01*
X25553Y23585D01*
X15748Y27646D01*
X5943Y23585D01*
X4054Y19025D01*
X2124Y19409D01*
Y90827D01*
X4054Y91211D01*
X5943Y86652D01*
X15748Y82590D01*
X25553Y86652D01*
X29615Y96457D01*
X25553Y106262D01*
X21488Y107946D01*
X21872Y109876D01*
X108049D01*
X108433Y107946D01*
X104368Y106262D01*
X100307Y96457D01*
X104368Y86652D01*
X114173Y82590D01*
X123978Y86652D01*
X128040Y96457D01*
X123978Y106262D01*
X119913Y107946D01*
X120297Y109876D01*
X132235D01*
Y18202D01*
D02*
G37*
G36*
X10008Y107946D02*
X5943Y106262D01*
X4054Y101702D01*
X2124Y102086D01*
Y109827D01*
X2173Y109876D01*
X9624D01*
X10008Y107946D01*
D02*
G37*
%LPC*%
G36*
X39783Y14925D02*
X37785D01*
X38370Y13512D01*
X39783Y12926D01*
Y14925D01*
D02*
G37*
G36*
Y17924D02*
X38370Y17339D01*
X37785Y15925D01*
X39783D01*
Y17924D01*
D02*
G37*
G36*
X47783Y19755D02*
X44722Y18487D01*
X44206Y17241D01*
X42237D01*
X42197Y17339D01*
X40784Y17924D01*
Y15425D01*
Y12926D01*
X42197Y13512D01*
X42237Y13610D01*
X44206D01*
X44722Y12364D01*
X47783Y11096D01*
X50845Y12364D01*
X52113Y15425D01*
X50845Y18487D01*
X47783Y19755D01*
D02*
G37*
%LPD*%
D14*
Y15425D02*
D03*
D15*
X40284D02*
D03*
D16*
X9484Y20043D02*
D03*
X22012D02*
D03*
X15748Y22638D02*
D03*
X6890Y13780D02*
D03*
X9484Y7516D02*
D03*
X15748Y4921D02*
D03*
X22012Y7516D02*
D03*
X24606Y13780D02*
D03*
X111846Y20043D02*
D03*
X124374D02*
D03*
X118110Y22638D02*
D03*
X109252Y13780D02*
D03*
X111846Y7516D02*
D03*
X118110Y4921D02*
D03*
X124374Y7516D02*
D03*
X126969Y13780D02*
D03*
X9484Y102720D02*
D03*
X22012D02*
D03*
X15748Y105315D02*
D03*
X6890Y96457D02*
D03*
X9484Y90193D02*
D03*
X15748Y87598D02*
D03*
X22012Y90193D02*
D03*
X24606Y96457D02*
D03*
X107910Y102720D02*
D03*
X120437D02*
D03*
X114173Y105315D02*
D03*
X105315Y96457D02*
D03*
X107910Y90193D02*
D03*
X114173Y87598D02*
D03*
X120437Y90193D02*
D03*
X123031Y96457D02*
D03*
D17*
X15748Y13780D02*
D03*
X118110D02*
D03*
X15748Y96457D02*
D03*
X114173D02*
D03*
M02*
