%FSLAX25Y25*%
%MOIN*%
G70*
G01*
G75*
G04 Layer_Color=2752767*
%ADD10C,0.00500*%
%ADD11C,0.00667*%
D10*
X45783Y13425D02*
Y17425D01*
X49784D01*
Y13425D01*
X45783D01*
X9484Y18043D02*
X7484Y22043D01*
X11484D01*
X9484Y18043D01*
X22012D02*
X20012Y22043D01*
X24012D01*
X22012Y18043D01*
X15748Y20638D02*
X13748Y24638D01*
X17748D01*
X15748Y20638D01*
X6890Y11779D02*
X4890Y15779D01*
X8890D01*
X6890Y11779D01*
X9484Y5516D02*
X7484Y9516D01*
X11484D01*
X9484Y5516D01*
X15748Y2921D02*
X13748Y6921D01*
X17748D01*
X15748Y2921D01*
X22012Y5516D02*
X20012Y9516D01*
X24012D01*
X22012Y5516D01*
X24606Y11779D02*
X22606Y15779D01*
X26606D01*
X24606Y11779D01*
X15748D02*
X16748Y12779D01*
X17748D01*
X16748Y13780D01*
X17748Y14780D01*
X16748D01*
X15748Y15779D01*
X14748Y14780D01*
X13748D01*
X14748Y13780D01*
X13748Y12779D01*
X14748D01*
X15748Y11779D01*
X111846Y18043D02*
X109846Y22043D01*
X113847D01*
X111846Y18043D01*
X124374D02*
X122374Y22043D01*
X126374D01*
X124374Y18043D01*
X118110Y20638D02*
X116110Y24638D01*
X120110D01*
X118110Y20638D01*
X109252Y11779D02*
X107252Y15779D01*
X111252D01*
X109252Y11779D01*
X111846Y5516D02*
X109846Y9516D01*
X113847D01*
X111846Y5516D01*
X118110Y2921D02*
X116110Y6921D01*
X120110D01*
X118110Y2921D01*
X124374Y5516D02*
X122374Y9516D01*
X126374D01*
X124374Y5516D01*
X126969Y11779D02*
X124969Y15779D01*
X128969D01*
X126969Y11779D01*
X118110D02*
X119110Y12779D01*
X120110D01*
X119110Y13780D01*
X120110Y14780D01*
X119110D01*
X118110Y15779D01*
X117110Y14780D01*
X116110D01*
X117110Y13780D01*
X116110Y12779D01*
X117110D01*
X118110Y11779D01*
X9484Y100720D02*
X7484Y104720D01*
X11484D01*
X9484Y100720D01*
X22012D02*
X20012Y104720D01*
X24012D01*
X22012Y100720D01*
X15748Y103315D02*
X13748Y107315D01*
X17748D01*
X15748Y103315D01*
X6890Y94457D02*
X4890Y98457D01*
X8890D01*
X6890Y94457D01*
X9484Y88193D02*
X7484Y92193D01*
X11484D01*
X9484Y88193D01*
X15748Y85598D02*
X13748Y89598D01*
X17748D01*
X15748Y85598D01*
X22012Y88193D02*
X20012Y92193D01*
X24012D01*
X22012Y88193D01*
X24606Y94457D02*
X22606Y98457D01*
X26606D01*
X24606Y94457D01*
X15748D02*
X16748Y95457D01*
X17748D01*
X16748Y96457D01*
X17748Y97457D01*
X16748D01*
X15748Y98457D01*
X14748Y97457D01*
X13748D01*
X14748Y96457D01*
X13748Y95457D01*
X14748D01*
X15748Y94457D01*
X107910Y100720D02*
X105910Y104720D01*
X109909D01*
X107910Y100720D01*
X120437D02*
X118437Y104720D01*
X122437D01*
X120437Y100720D01*
X114173Y103315D02*
X112173Y107315D01*
X116173D01*
X114173Y103315D01*
X105315Y94457D02*
X103315Y98457D01*
X107315D01*
X105315Y94457D01*
X107910Y88193D02*
X105910Y92193D01*
X109909D01*
X107910Y88193D01*
X114173Y85598D02*
X112173Y89598D01*
X116173D01*
X114173Y85598D01*
X120437Y88193D02*
X118437Y92193D01*
X122437D01*
X120437Y88193D01*
X123031Y94457D02*
X121031Y98457D01*
X125031D01*
X123031Y94457D01*
X114173D02*
X115173Y95457D01*
X116173D01*
X115173Y96457D01*
X116173Y97457D01*
X115173D01*
X114173Y98457D01*
X113173Y97457D01*
X112173D01*
X113173Y96457D01*
X112173Y95457D01*
X113173D01*
X114173Y94457D01*
D11*
X42283Y15425D02*
G03*
X42283Y15425I-2000J0D01*
G01*
M02*
