M48
;Layer_Color=9474304
;FILE_FORMAT=2:5
INCH,TZ
;TYPE=PLATED
T1F00S00C0.01500
T2F00S00C0.01968
T3F00S00C0.03000
T4F00S00C0.11811
%
T01
X40284Y15425
T02
X111846Y7516
X109252Y13780
X111846Y20043
X118110Y22638
X124374Y20043
X126969Y13780
X124374Y7516
X118110Y4921
X22012Y7516
X15748Y4921
X9484Y7516
X6890Y13780
X9484Y20043
X15748Y22638
X22012Y20043
X24606Y13780
X22012Y90193
X15748Y87598
X9484Y90193
X6890Y96457
X9484Y102720
X15748Y105315
X22012Y102720
X24606Y96457
X105315
X107910Y102720
X114173Y105315
X120437Y102720
X123031Y96457
X120437Y90193
X114173Y87598
X107910Y90193
T03
X47783Y15425
T04
X118110Y13780
X15748
Y96457
X114173
M30
