%FSLAX25Y25*%
%MOIN*%
G70*
G01*
G75*
G04 Layer_Color=8388736*
%ADD10R,0.11811X0.05906*%
%ADD11R,0.11811X0.03937*%
%ADD12R,0.03000X0.02500*%
%ADD13C,0.01000*%
%ADD14C,0.06000*%
%ADD15C,0.03000*%
%ADD16C,0.03937*%
%ADD17C,0.23622*%
%ADD18C,0.00300*%
%ADD19C,0.00500*%
%ADD20C,0.00394*%
%ADD21C,0.05906*%
%ADD22R,0.12611X0.06706*%
%ADD23R,0.12611X0.04737*%
%ADD24R,0.03800X0.03300*%
%ADD25C,0.06800*%
%ADD26C,0.03800*%
D16*
X9484Y20043D02*
D03*
X22012D02*
D03*
X15748Y22638D02*
D03*
X6890Y13780D02*
D03*
X9484Y7516D02*
D03*
X15748Y4921D02*
D03*
X22012Y7516D02*
D03*
X24606Y13780D02*
D03*
X111846Y20043D02*
D03*
X124374D02*
D03*
X118110Y22638D02*
D03*
X109252Y13780D02*
D03*
X111846Y7516D02*
D03*
X118110Y4921D02*
D03*
X124374Y7516D02*
D03*
X126969Y13780D02*
D03*
X9484Y102720D02*
D03*
X22012D02*
D03*
X15748Y105315D02*
D03*
X6890Y96457D02*
D03*
X9484Y90193D02*
D03*
X15748Y87598D02*
D03*
X22012Y90193D02*
D03*
X24606Y96457D02*
D03*
X107910Y102720D02*
D03*
X120437D02*
D03*
X114173Y105315D02*
D03*
X105315Y96457D02*
D03*
X107910Y90193D02*
D03*
X114173Y87598D02*
D03*
X120437Y90193D02*
D03*
X123031Y96457D02*
D03*
D17*
X15748Y13780D02*
D03*
X118110D02*
D03*
X15748Y96457D02*
D03*
X114173D02*
D03*
D19*
X53940Y104255D02*
X53440Y104755D01*
X52441D01*
X51941Y104255D01*
Y103755D01*
X52441Y103255D01*
X53440D01*
X53940Y102756D01*
Y102256D01*
X53440Y101756D01*
X52441D01*
X51941Y102256D01*
X56440Y101756D02*
X55440D01*
X54940Y102256D01*
Y103255D01*
X55440Y103755D01*
X56440D01*
X56939Y103255D01*
Y102756D01*
X54940D01*
X57939Y101756D02*
Y103755D01*
X59439D01*
X59938Y103255D01*
Y101756D01*
X60938D02*
X62438D01*
X62937Y102256D01*
X62438Y102756D01*
X61438D01*
X60938Y103255D01*
X61438Y103755D01*
X62937D01*
X64437Y101756D02*
X65437D01*
X65936Y102256D01*
Y103255D01*
X65437Y103755D01*
X64437D01*
X63937Y103255D01*
Y102256D01*
X64437Y101756D01*
X66936Y103755D02*
Y101756D01*
Y102756D01*
X67436Y103255D01*
X67936Y103755D01*
X68436D01*
X72934Y104755D02*
Y102756D01*
X73934Y101756D01*
X74933Y102756D01*
Y104755D01*
X77933Y101756D02*
X75933D01*
X77933Y103755D01*
Y104255D01*
X77433Y104755D01*
X76433D01*
X75933Y104255D01*
X39941Y95255D02*
Y92256D01*
X41440D01*
X41940Y92756D01*
Y94755D01*
X41440Y95255D01*
X39941D01*
X42940Y92256D02*
X43940D01*
X43440D01*
Y94255D01*
X42940D01*
X46439Y91256D02*
X46939D01*
X47438Y91756D01*
Y94255D01*
X45939D01*
X45439Y93755D01*
Y92756D01*
X45939Y92256D01*
X47438D01*
X48438D02*
X49438D01*
X48938D01*
Y94255D01*
X48438D01*
X51437Y94755D02*
Y94255D01*
X50937D01*
X51937D01*
X51437D01*
Y92756D01*
X51937Y92256D01*
X53936Y94255D02*
X54936D01*
X55436Y93755D01*
Y92256D01*
X53936D01*
X53437Y92756D01*
X53936Y93256D01*
X55436D01*
X56436Y92256D02*
X57435D01*
X56936D01*
Y95255D01*
X56436D01*
X61934D02*
Y93256D01*
X62933Y92256D01*
X63933Y93256D01*
Y95255D01*
X64933Y92256D02*
X65933D01*
X65433D01*
Y94255D01*
X64933D01*
X67432Y95255D02*
Y92256D01*
X68932D01*
X69431Y92756D01*
Y93256D01*
Y93755D01*
X68932Y94255D01*
X67432D01*
X70431D02*
Y92256D01*
Y93256D01*
X70931Y93755D01*
X71431Y94255D01*
X71931D01*
X73930D02*
X74930D01*
X75429Y93755D01*
Y92256D01*
X73930D01*
X73430Y92756D01*
X73930Y93256D01*
X75429D01*
X76929Y94755D02*
Y94255D01*
X76429D01*
X77429D01*
X76929D01*
Y92756D01*
X77429Y92256D01*
X78928D02*
X79928D01*
X79428D01*
Y94255D01*
X78928D01*
X81927Y92256D02*
X82927D01*
X83427Y92756D01*
Y93755D01*
X82927Y94255D01*
X81927D01*
X81428Y93755D01*
Y92756D01*
X81927Y92256D01*
X84426D02*
Y94255D01*
X85926D01*
X86426Y93755D01*
Y92256D01*
D21*
X24606Y13780D02*
G03*
X24606Y13780I-8858J0D01*
G01*
X126969D02*
G03*
X126969Y13780I-8858J0D01*
G01*
X24606Y96457D02*
G03*
X24606Y96457I-8858J0D01*
G01*
X123031D02*
G03*
X123031Y96457I-8858J0D01*
G01*
D22*
X124016Y39764D02*
D03*
Y72835D02*
D03*
D23*
X104331Y64173D02*
D03*
Y48425D02*
D03*
Y56299D02*
D03*
Y64173D02*
D03*
D24*
X78295Y38189D02*
D03*
Y44488D02*
D03*
X78347Y51181D02*
D03*
Y57480D02*
D03*
X78284Y64063D02*
D03*
Y70362D02*
D03*
D25*
X47783Y15425D02*
D03*
D26*
X40284D02*
D03*
M02*
